#!OML:ASF F:\VICON\USERDATA\INSTALL\Justin_Nancy\Justin_Nancy.ASF
:FULLY-SPECIFIED
:DEGREES
373
root -2.43157 17.4318 8.67424 25.7401 83.4367 22.6142
lowerback 6.88836 1.31143 -2.29487
upperback -0.00128385 1.61244 1.04602
thorax -3.95938 0.85821 2.20684
lowerneck -16.3798 -3.60415 -8.7211
upperneck 24.2888 -3.06862 2.80381
head 10.7296 -1.75873 2.06219
rclavicle -1.71949e-014 -3.18055e-015
rhumerus -32.9708 -11.7037 -80.7983
rradius 33.0027
rwrist 2.95063
rhand -17.5876 11.2713
rfingers 7.12502
rthumb 8.66837 -18.5307
lclavicle -1.71949e-014 -3.18055e-015
lhumerus -40.0009 20.5421 78.8159
lradius 21.0485
lwrist -14.9689
lhand -14.9888 23.257
lfingers 7.12502
lthumb 11.1755 52.9393
rfemur -19.8655 -2.99821 15.9926
rtibia 65.8012
rfoot -7.49659 -1.18862
rtoes -1.60778
lfemur -14.6728 -1.94289 -30.8866
ltibia 26.2232
lfoot -12.2012 -2.27459
ltoes 11.7471
374
root -2.32047 17.4186 8.69476 27.8472 83.6645 24.7436
lowerback 6.87565 1.17386 -2.42662
upperback -0.0163557 1.41962 1.06807
thorax -3.96084 0.765473 2.3242
lowerneck -16.4161 -3.59494 -8.77862
upperneck 24.4783 -3.04784 2.86826
head 10.8077 -1.74734 2.10004
rclavicle -1.37161e-014 -1.66979e-014
rhumerus -33.001 -12.1019 -80.584
rradius 32.8723
rwrist 3.78538
rhand -16.9381 11.4257
rfingers 7.12502
rthumb 9.29512 -18.3494
lclavicle -1.37161e-014 -1.66979e-014
lhumerus -39.4939 19.3655 79.9104
lradius 21.6358
lwrist -13.6556
lhand -15.8751 23.848
lfingers 7.12502
lthumb 10.3207 53.5748
rfemur -21.2006 -2.99892 15.8417
rtibia 66.1131
rfoot -8.65908 -2.07021
rtoes -2.39682
lfemur -14.1811 -2.12772 -31.0205
ltibia 26.1496
lfoot -12.488 -2.2171
ltoes 10.3916
375
root -2.20776 17.4078 8.71736 29.8152 83.7553 26.785
lowerback 6.9263 1.15827 -2.66717
upperback -0.0454649 1.38191 1.15905
thorax -4.02567 0.753695 2.55709
lowerneck -16.2827 -3.68478 -9.03543
upperneck 24.5655 -3.10341 2.85384
head 10.825 -1.79798 2.13186
rclavicle -1.43125e-014 2.38542e-015
rhumerus -33.1637 -12.1168 -80.2401
rradius 32.9166
rwrist 3.90071
rhand -16.1139 11.3484
rfingers 7.12502
rthumb 10.0902 -18.3896
lclavicle -1.43125e-014 2.38542e-015
lhumerus -39.0743 18.8631 80.752
lradius 22.0883
lwrist -12.9188
lhand -16.0895 23.9461
lfingers 7.12502
lthumb 10.1138 53.683
rfemur -22.408 -2.82413 15.6029
rtibia 66.1302
rfoot -9.38524 -3.4736
rtoes -2.25027
lfemur -13.7368 -2.32952 -31.1941
ltibia 26.3175
lfoot -12.8922 -1.98217
ltoes 10.5564
376
root -2.09635 17.3892 8.74587 30.3382 83.9714 27.4569
lowerback 7.10407 1.12649 -2.69255
upperback -0.0776192 1.33541 1.21106
thorax -4.15798 0.734065 2.6275
lowerneck -16.055 -3.73694 -9.03156
upperneck 24.5826 -3.18743 2.82495
head 10.7927 -1.83887 2.11125
rclavicle -8.69683e-015 -1.19271e-014
rhumerus -33.3986 -12.3089 -79.948
rradius 32.981
rwrist 4.67273
rhand -15.0238 11.0756
rfingers 7.12502
rthumb 11.1418 -18.6086
lclavicle -8.69683e-015 -1.19271e-014
lhumerus -38.8167 18.8674 81.0186
lradius 22.64
lwrist -12.7803
lhand -16.1973 24.1557
lfingers 7.12502
lthumb 10.0098 53.8976
rfemur -23.4219 -2.66539 15.5362
rtibia 65.8577
rfoot -10.1252 -3.56218
rtoes 2.09646
lfemur -13.319 -1.87494 -31.1684
ltibia 26.6266
lfoot -13.4933 -2.16686
ltoes 8.68489
377
root -1.9881 17.3673 8.76627 31.5231 84.3972 28.7822
lowerback 7.29443 0.846794 -2.57036
upperback -0.0581321 0.976979 1.3702
thorax -4.22146 0.556771 2.76129
lowerneck -15.961 -3.61313 -9.34736
upperneck 24.4636 -2.95562 2.90062
head 10.7233 -1.75268 2.22414
rclavicle -9.34288e-015 1.82882e-014
rhumerus -33.3305 -13.5198 -79.1035
rradius 32.6535
rwrist 8.75729
rhand -12.7959 11.2399
rfingers 7.12502
rthumb 13.29 -18.3163
lclavicle -9.34288e-015 1.82882e-014
lhumerus -38.6112 19.3696 81.2945
lradius 23.347
lwrist -12.7617
lhand -16.4346 24.2263
lfingers 7.12502
lthumb 9.78087 53.9791
rfemur -24.3317 -2.66284 15.4788
rtibia 65.3672
rfoot -10.9251 -2.53181
rtoes 6.97558
lfemur -12.9147 -1.61412 -31.1084
ltibia 26.9672
lfoot -14.192 -2.31776
ltoes 8.49159
378
root -1.87751 17.3463 8.78293 33.8344 84.5764 31.1322
lowerback 7.3186 0.58339 -2.58748
upperback -0.0448007 0.62692 1.42379
thorax -4.19812 0.383807 2.86516
lowerneck -15.9476 -3.50415 -9.54017
upperneck 24.3876 -2.76686 2.95445
head 10.6844 -1.67774 2.3018
rclavicle -1.69961e-014 7.95139e-015
rhumerus -33.1647 -9.84089 -81.1856
rradius 32.8736
rwrist -1.35051
rhand -19.0769 10.9959
rfingers 7.12502
rthumb 7.23089 -18.8605
lclavicle -1.69961e-014 7.95139e-015
lhumerus -38.3247 19.4243 81.7363
lradius 24.0771
lwrist -12.2007
lhand -16.6413 24.3955
lfingers 7.12502
lthumb 9.58144 54.1576
rfemur -25.3162 -2.3466 15.2764
rtibia 64.7229
rfoot -11.7233 -2.31347
rtoes 7.83105
lfemur -12.5665 -2.02345 -31.2466
ltibia 27.2991
lfoot -14.815 -1.89173
ltoes 11.4509
379
root -1.76322 17.3304 8.80882 34.8069 84.6314 32.1304
lowerback 7.38962 0.528013 -2.49421
upperback -0.11493 0.553441 1.30892
thorax -4.30371 0.346176 2.7007
lowerneck -15.9361 -3.51383 -9.53133
upperneck 24.5539 -2.8352 3.15848
head 10.7499 -1.68504 2.3672
rclavicle -8.49804e-015 3.97569e-015
rhumerus -33.4319 -9.23236 -81.3375
rradius 33.1047
rwrist -1.49449
rhand -18.2287 10.4231
rfingers 7.12502
rthumb 8.0496 -19.4036
lclavicle -8.49804e-015 3.97569e-015
lhumerus -37.9704 18.7929 82.1501
lradius 24.6548
lwrist -11.4109
lhand -17.0168 24.2664
lfingers 7.12502
lthumb 9.21915 54.0448
rfemur -26.3109 -1.83802 15.1285
rtibia 63.9239
rfoot -12.5514 -2.3296
rtoes 6.81836
lfemur -12.2008 -2.8123 -31.3081
ltibia 27.6132
lfoot -15.2155 -0.933111
ltoes 11.3769
